<?xml version="1.0" encoding="utf-8"?>
<!-- Generator: Adobe Illustrator 25.2.0, SVG Export Plug-In . SVG Version: 6.00 Build 0)  -->
<svg version="1.1" id="Layer_1" xmlns="http://www.w3.org/2000/svg" xmlns:xlink="http://www.w3.org/1999/xlink" x="0px" y="0px"
	 viewBox="0 0 167 50" style="enable-background:new 0 0 167 50;" xml:space="preserve">
<style type="text/css">
	.st0{fill:#FDFEFF;}
	.st1{fill:#7324DA;}
	.st2{fill:#08E3C7;}
</style>
<g id="XMLID_41_">
	<g id="XMLID_45_">
		<path id="XMLID_54_" class="st0" d="M20,22.1c-0.8-0.8-1.7-1.4-2.8-1.9c-1.1-0.4-2.3-0.7-3.7-0.7H0v29.9h5.7V38.1h7.8
			c1.4,0,2.6-0.2,3.7-0.7c1.1-0.4,2-1.1,2.8-1.9c0.8-0.8,1.4-1.8,1.8-2.9c0.4-1.1,0.6-2.4,0.6-3.8s-0.2-2.6-0.6-3.8
			C21.3,23.9,20.8,22.9,20,22.1z M16.5,29.8c0,1.1-0.3,1.9-0.9,2.5s-1.5,0.9-2.6,0.9H5.7v-8.7H13c1.1,0,1.9,0.3,2.6,0.9
			c0.6,0.6,0.9,1.4,0.9,2.5V29.8z"/>
		<path id="XMLID_53_" class="st0" d="M26,27.1h5.5v22.4H26V27.1z"/>
		<path id="XMLID_52_" class="st0" d="M28.8,17.5c-1.1,0-2,0.3-2.5,0.8s-0.8,1.2-0.8,2v0.9c0,0.8,0.3,1.5,0.8,2s1.3,0.8,2.5,0.8
			c1.1,0,1.9-0.3,2.4-0.8s0.8-1.2,0.8-2v-0.9c0-0.8-0.3-1.5-0.8-2C30.7,17.7,29.9,17.5,28.8,17.5z"/>
		<path id="XMLID_51_" class="st0" d="M43.4,21h-4.9v3.8c0,0.8-0.1,1.4-0.5,1.7c-0.3,0.4-0.9,0.6-1.7,0.6h-1.7v4.4h3.3v12.3
			c0,1.8,0.5,3.2,1.5,4.2s2.4,1.5,4.3,1.5h3.9v-4.4h-4.2V31.5H48v-4.4h-4.6V21z"/>
		<path id="XMLID_50_" class="st0" d="M63.5,44.6c-0.7,0.7-1.7,1-3,1c-1.5,0-2.7-0.5-3.5-1.4c-0.8-1-1.1-2.2-1.1-3.8v-4.1
			c0-1.6,0.4-2.8,1.1-3.8c0.8-1,1.9-1.5,3.5-1.5c1.2,0,2.2,0.3,2.9,0.9c0.7,0.6,1.2,1.4,1.4,2.3l4.5-2c-0.7-1.8-1.7-3.2-3.2-4.2
			s-3.3-1.5-5.6-1.5c-1.7,0-3.1,0.3-4.4,0.8c-1.3,0.5-2.4,1.3-3.2,2.3c-0.9,1-1.5,2.2-2,3.7c-0.5,1.4-0.7,3-0.7,4.8s0.2,3.4,0.7,4.9
			c0.5,1.4,1.1,2.7,2,3.7s2,1.8,3.2,2.4c1.3,0.5,2.8,0.8,4.4,0.8c2.2,0,4-0.5,5.5-1.5s2.6-2.5,3.4-4.4l-4.2-2
			C64.7,43.1,64.2,43.9,63.5,44.6L63.5,44.6z"/>
		<path id="XMLID_49_" class="st0" d="M84.5,26.6c-1.7,0-3.1,0.4-4.1,1.2c-1,0.8-1.7,1.8-2.2,3H78V17.7h-5.5v31.7H78V34.7
			c0-0.6,0.1-1.1,0.4-1.6c0.3-0.4,0.6-0.8,1-1.1c0.4-0.3,0.9-0.5,1.4-0.7s1.1-0.2,1.7-0.2c1.3,0,2.3,0.4,2.8,1.2
			c0.6,0.8,0.9,2,0.9,3.6v13.6h5.5V35.3c0-2.8-0.6-5-1.8-6.5C88.6,27.3,86.9,26.6,84.5,26.6z"/>
		<path id="XMLID_48_" class="st0" d="M96.7,33.7H109v5.4H96.7V33.7z"/>
		<path id="XMLID_47_" class="st0" d="M111.8,24.1h3.9v20.8h-3.9v4.6h13.6v-4.6h-4V24.1h4v-4.6h-13.6V24.1z"/>
		<path id="XMLID_46_" class="st0" d="M146.8,28.9c-1.2-1.5-3-2.3-5.3-2.3c-1.7,0-3.1,0.4-4.1,1.2c-1,0.8-1.7,1.8-2.2,3H135v-3.7
			h-5.5v22.4h5.5V34.7c0-0.6,0.1-1.1,0.4-1.6c0.3-0.4,0.6-0.8,1-1.1c0.4-0.3,0.9-0.5,1.4-0.7s1.1-0.2,1.7-0.2c1.3,0,2.3,0.4,2.8,1.2
			c0.6,0.8,0.9,2,0.9,3.6v13.6h5.5V35.3C148.6,32.5,148,30.4,146.8,28.9L146.8,28.9z"/>
	</g>
	<g id="XMLID_42_">
		<path id="XMLID_44_" class="st1" d="M148.6,0v3.6l7.2,4.4v0.1l-7.2,4.3v3.7l10.8-6.9V6.9L148.6,0z"/>
		<path id="XMLID_43_" class="st2" d="M155.8,17.9v2.3l10.7,6.9v-3.6l-7.1-4.4V19l7.1-4.3V11L155.8,17.9z"/>
	</g>
</g>
</svg>
