<svg class="svg" version="1.1" id="Layer_1" xmlns="http://www.w3.org/2000/svg" x="0" y="0" width="167" height="50" viewBox="0 0 167 50" xml:space="preserve"><g id="XMLID_41_"><g id="XMLID_45_" fill="#303D47"><path id="XMLID_54_" d="M20 22.1c-.8-.8-1.7-1.4-2.8-1.9-1.1-.4-2.3-.7-3.7-.7H0v29.9h5.7V38.1h7.8c1.4 0 2.6-.2 3.7-.7 1.1-.4 2-1.1 2.8-1.9.8-.8 1.4-1.8 1.8-2.9.4-1.1.6-2.4.6-3.8s-.2-2.6-.6-3.8c-.5-1.1-1-2.1-1.8-2.9zm-3.5 7.7c0 1.1-.3 1.9-.9 2.5-.6.6-1.5.9-2.6.9H5.7v-8.7H13c1.1 0 1.9.3 2.6.9.6.6.9 1.4.9 2.5v1.9z"></path><path id="XMLID_53_" d="M26 27.1h5.5v22.4H26z"></path><path id="XMLID_52_" d="M28.8 17.5c-1.1 0-2 .3-2.5.8s-.8 1.2-.8 2v.9c0 .8.3 1.5.8 2s1.3.8 2.5.8c1.1 0 1.9-.3 2.4-.8s.8-1.2.8-2v-.9c0-.8-.3-1.5-.8-2-.5-.6-1.3-.8-2.4-.8z"></path><path id="XMLID_51_" d="M43.4 21h-4.9v3.8c0 .8-.1 1.4-.5 1.7-.3.4-.9.6-1.7.6h-1.7v4.4h3.3v12.3c0 1.8.5 3.2 1.5 4.2s2.4 1.5 4.3 1.5h3.9v-4.4h-4.2V31.5H48v-4.4h-4.6V21z"></path><path id="XMLID_50_" d="M63.5 44.6c-.7.7-1.7 1-3 1-1.5 0-2.7-.5-3.5-1.4-.8-1-1.1-2.2-1.1-3.8v-4.1c0-1.6.4-2.8 1.1-3.8.8-1 1.9-1.5 3.5-1.5 1.2 0 2.2.3 2.9.9.7.6 1.2 1.4 1.4 2.3l4.5-2c-.7-1.8-1.7-3.2-3.2-4.2-1.5-1-3.3-1.5-5.6-1.5-1.7 0-3.1.3-4.4.8-1.3.5-2.4 1.3-3.2 2.3-.9 1-1.5 2.2-2 3.7-.5 1.4-.7 3-.7 4.8 0 1.8.2 3.4.7 4.9.5 1.4 1.1 2.7 2 3.7.9 1 2 1.8 3.2 2.4 1.3.5 2.8.8 4.4.8 2.2 0 4-.5 5.5-1.5s2.6-2.5 3.4-4.4l-4.2-2c-.5 1.1-1 1.9-1.7 2.6z"></path><path id="XMLID_49_" d="M84.5 26.6c-1.7 0-3.1.4-4.1 1.2-1 .8-1.7 1.8-2.2 3H78V17.7h-5.5v31.7H78V34.7c0-.6.1-1.1.4-1.6.3-.4.6-.8 1-1.1.4-.3.9-.5 1.4-.7.5-.2 1.1-.2 1.7-.2 1.3 0 2.3.4 2.8 1.2.6.8.9 2 .9 3.6v13.6h5.5V35.3c0-2.8-.6-5-1.8-6.5-1.3-1.5-3-2.2-5.4-2.2z"></path><path id="XMLID_48_" d="M96.7 33.7H109v5.4H96.7z"></path><path id="XMLID_47_" d="M111.8 24.1h3.9v20.8h-3.9v4.6h13.6v-4.6h-4V24.1h4v-4.6h-13.6z"></path><path id="XMLID_46_" d="M146.8 28.9c-1.2-1.5-3-2.3-5.3-2.3-1.7 0-3.1.4-4.1 1.2-1 .8-1.7 1.8-2.2 3h-.2v-3.7h-5.5v22.4h5.5V34.7c0-.6.1-1.1.4-1.6.3-.4.6-.8 1-1.1.4-.3.9-.5 1.4-.7.5-.2 1.1-.2 1.7-.2 1.3 0 2.3.4 2.8 1.2.6.8.9 2 .9 3.6v13.6h5.5V35.3c-.1-2.8-.7-4.9-1.9-6.4z"></path></g><g id="XMLID_42_"><path id="XMLID_44_" fill="#7324DA" d="M148.6 0v3.6l7.2 4.4v.1l-7.2 4.3v3.7l10.8-6.9V6.9z"></path><path id="XMLID_43_" fill="#08E3C7" d="M155.8 17.9v2.3l10.7 6.9v-3.6l-7.1-4.4V19l7.1-4.3V11z"></path></g></g></svg>